<svg width="101" height="101" viewBox="0 0 101 101" fill="none" xmlns="http://www.w3.org/2000/svg">
<rect x="0.311035" y="0.311035" width="100" height="100" rx="2.83951" fill="#0029FF"/>
<path fill-rule="evenodd" clip-rule="evenodd" d="M36.7662 29.2047C36.7662 28.6037 37.2534 28.1165 37.8545 28.1165H45.8123H46.0567H54.7363H55.3471H62.572C63.1731 28.1165 63.6603 28.6037 63.6603 29.2047L63.6603 35.8433C63.6603 36.4444 64.1476 36.9316 64.7486 36.9316H71.496C72.0971 36.9316 72.5843 37.4188 72.5843 38.0199V44.7673C72.5843 45.3683 72.0971 45.8556 71.496 45.8556H64.7486C64.1476 45.8556 63.6603 45.3683 63.6603 44.7673L63.6603 38.1287C63.6603 37.5277 63.1731 37.0404 62.572 37.0404H55.3471H54.7363H46.0567H45.8123H37.9766C37.3756 37.0404 36.8883 37.5277 36.8883 38.1287V45.8556V46.0999V54.7796V62.5065C36.8883 63.1075 37.3756 63.5948 37.9766 63.5948H45.8123H54.3699H54.7363H62.572C63.1731 63.5948 63.6603 63.1075 63.6603 62.5065L63.6603 55.8679C63.6603 55.2669 64.1476 54.7796 64.7486 54.7796H71.496C72.0971 54.7796 72.5843 55.2669 72.5843 55.8679V62.6153C72.5843 63.2164 72.0971 63.7036 71.496 63.7036H64.7486C64.1476 63.7036 63.6603 64.1909 63.6603 64.7919L63.6603 71.4305C63.6603 72.0315 63.1731 72.5188 62.572 72.5188H54.7363H54.3699H45.8123H37.6102C37.0091 72.5188 36.5219 72.0315 36.5219 71.4305V64.7919C36.5219 64.1909 36.0346 63.7036 35.4336 63.7036H29.0526C28.4516 63.7036 27.9644 63.2164 27.9644 62.6153V54.7796V46.0999V45.8556V37.8977C27.9644 37.2967 28.4516 36.8094 29.0526 36.8094H35.6779C36.2789 36.8094 36.7662 36.3222 36.7662 35.7212V29.2047Z" fill="white"/>
</svg>
